<?xml version="1.0" encoding="UTF-8"?>
<!DOCTYPE svg PUBLIC "-//W3C//DTD SVG 1.1//EN" "http://www.w3.org/Graphics/SVG/1.1/DTD/svg11.dtd">
<svg xmlns="http://www.w3.org/2000/svg" version="1.1" width="2611px" height="1920px" style="shape-rendering:geometricPrecision; text-rendering:geometricPrecision; image-rendering:optimizeQuality; fill-rule:evenodd; clip-rule:evenodd" xmlns:xlink="http://www.w3.org/1999/xlink">
<g><path style="opacity:1" fill="#db7c73" d="M 2392.5,7.5 C 2425.76,5.03814 2449.59,18.7048 2464,48.5C 2465.74,53.0544 2467.07,57.7211 2468,62.5C 2504.07,404.826 2540.07,747.16 2576,1089.5C 2578.98,1124.49 2564.48,1148.99 2532.5,1163C 2525.31,1165.11 2517.97,1166.44 2510.5,1167C 1743.49,1247.6 976.493,1328.27 209.5,1409C 168.971,1411.79 143.471,1393.62 133,1354.5C 96.934,1012.17 60.934,669.84 25,327.5C 22.0245,292.511 36.5245,268.011 68.5,254C 75.6943,251.894 83.0276,250.561 90.5,250C 858.016,169.479 1625.35,88.6455 2392.5,7.5 Z"/></g>
<g><path style="opacity:1" fill="#fefefe" d="M 2060.5,154.5 C 2063.25,154.187 2065.91,154.52 2068.5,155.5C 2006.96,276.745 1945.29,397.911 1883.5,519C 1995.37,706.583 2107.37,894.083 2219.5,1081.5C 2200.61,1084.47 2181.61,1086.97 2162.5,1089C 2083.51,1097.07 2004.51,1105.07 1925.5,1113C 1862.79,1001.09 1799.96,889.252 1737,777.5C 1712.26,825.99 1687.26,874.324 1662,922.5C 1669.11,994.825 1676.28,1067.16 1683.5,1139.5C 1599.14,1147.84 1514.81,1156.5 1430.5,1165.5C 1398.05,854.108 1365.38,542.775 1332.5,231.5C 1417.19,222.691 1501.86,214.024 1586.5,205.5C 1599.58,333.538 1613.08,461.538 1627,589.5C 1693.39,453.044 1760.06,316.711 1827,180.5C 1904.91,171.879 1982.74,163.212 2060.5,154.5 Z"/></g>
<g><path style="opacity:1" fill="#fefefe" d="M 956.5,271.5 C 983.307,270.577 1009.97,272.077 1036.5,276C 1088.76,284.369 1131.59,308.869 1165,349.5C 1224.6,422.842 1240.6,504.842 1213,595.5C 1193.08,650.423 1155.91,688.59 1101.5,710C 1222.04,730.213 1286.21,801.379 1294,923.5C 1297.81,988.194 1283.47,1048.53 1251,1104.5C 1232.78,1131.05 1209.28,1151.55 1180.5,1166C 1149.08,1180.81 1116.42,1191.81 1082.5,1199C 1062.27,1202.98 1041.94,1206.31 1021.5,1209C 876.878,1224.1 732.212,1239.26 587.5,1254.5C 555.049,943.108 522.382,631.775 489.5,320.5C 645.339,304.433 801.005,288.1 956.5,271.5 Z"/></g>
<g><path style="opacity:1" fill="#db7c73" d="M 876.5,482.5 C 890.208,482.138 903.874,482.638 917.5,484C 948.771,489.271 967.604,507.437 974,538.5C 979.047,563.887 974.713,587.554 961,609.5C 951.873,621.489 940.039,629.655 925.5,634C 912.38,637.614 899.047,639.947 885.5,641C 848.811,644.873 812.144,648.706 775.5,652.5C 769.74,600.179 764.073,547.845 758.5,495.5C 797.982,491.298 837.316,486.965 876.5,482.5 Z"/></g>
<g><path style="opacity:1" fill="#db7c73" d="M 796.5,857.5 C 796.5,855.5 796.5,853.5 796.5,851.5C 798.099,851.768 799.432,851.434 800.5,850.5C 840.145,846.225 879.811,842.058 919.5,838C 944.662,834.528 968.662,838.195 991.5,849C 1027.04,876.972 1037.54,912.472 1023,955.5C 1012.82,980.349 994.651,995.849 968.5,1002C 962.5,1003.33 956.5,1004.67 950.5,1006C 904.779,1010.34 859.112,1015.17 813.5,1020.5C 808.069,966.116 802.402,911.782 796.5,857.5 Z"/></g>
<g><path style="opacity:1" fill="#efcac7" d="M 800.5,850.5 C 799.432,851.434 798.099,851.768 796.5,851.5C 796.5,853.5 796.5,855.5 796.5,857.5C 795.532,855.393 795.198,853.059 795.5,850.5C 797.167,850.5 798.833,850.5 800.5,850.5 Z"/></g>
<g><path style="opacity:0.997" fill="#db7c73" d="M 2298.5,1251.5 C 2335.13,1248.19 2370.47,1253.36 2404.5,1267C 2438.72,1283.22 2464.39,1308.22 2481.5,1342C 2445.07,1357.63 2408.57,1373.13 2372,1388.5C 2357.86,1363.67 2336.36,1351 2307.5,1350.5C 2292.82,1350.8 2278.82,1353.97 2265.5,1360C 2253.16,1369.34 2250.66,1380.84 2258,1394.5C 2264.08,1400.98 2271.58,1404.81 2280.5,1406C 2306.42,1409.86 2332.42,1413.19 2358.5,1416C 2385,1418.97 2411,1424.31 2436.5,1432C 2488.15,1455.6 2514.15,1495.93 2514.5,1553C 2514.75,1586.92 2503.59,1616.42 2481,1641.5C 2452.7,1670.91 2418.53,1690.41 2378.5,1700C 2328.94,1712.7 2279.27,1713.36 2229.5,1702C 2174.43,1684.59 2136.43,1648.93 2115.5,1595C 2156.8,1582.73 2198.13,1570.57 2239.5,1558.5C 2245.24,1569.46 2252.57,1579.29 2261.5,1588C 2276.99,1599.04 2294.32,1604.54 2313.5,1604.5C 2330.84,1604.11 2347.51,1600.61 2363.5,1594C 2376.38,1586.36 2379.88,1575.52 2374,1561.5C 2370.54,1555.84 2365.71,1551.67 2359.5,1549C 2352.04,1546.22 2344.37,1544.22 2336.5,1543C 2302.25,1540.14 2268.25,1535.47 2234.5,1529C 2208.66,1524.39 2185,1514.73 2163.5,1500C 2133.58,1474.11 2118.58,1441.28 2118.5,1401.5C 2120.75,1353.5 2141.41,1315.67 2180.5,1288C 2200.81,1274.85 2222.81,1265.52 2246.5,1260C 2263.82,1256.17 2281.15,1253.34 2298.5,1251.5 Z"/></g>
<g><path style="opacity:0.997" fill="#db7c73" d="M 2067.5,1282.5 C 2069.83,1282.5 2072.17,1282.5 2074.5,1282.5C 2078.05,1316.48 2081.39,1350.48 2084.5,1384.5C 2017.86,1391.65 1951.19,1398.65 1884.5,1405.5C 1886.35,1426.51 1888.35,1447.51 1890.5,1468.5C 1944.83,1463.1 1999.16,1457.77 2053.5,1452.5C 2056.7,1485.18 2060.03,1517.85 2063.5,1550.5C 2009.46,1555.9 1955.46,1561.57 1901.5,1567.5C 1903.61,1591.19 1905.95,1614.86 1908.5,1638.5C 1975.54,1631.83 2042.54,1624.83 2109.5,1617.5C 2113.3,1652.82 2116.97,1688.15 2120.5,1723.5C 2008.52,1735.31 1896.52,1746.98 1784.5,1758.5C 1769.63,1611.45 1754.29,1464.45 1738.5,1317.5C 1848.36,1306.28 1958.02,1294.62 2067.5,1282.5 Z"/></g>
<g><path style="opacity:0.997" fill="#db7c73" d="M 1549.5,1473.5 C 1549.7,1471.01 1549.2,1468.68 1548,1466.5C 1547.52,1467.45 1547.35,1468.45 1547.5,1469.5C 1532,1575.97 1515.67,1682.31 1498.5,1788.5C 1471.22,1791.76 1443.89,1794.76 1416.5,1797.5C 1414.83,1797.17 1413.17,1796.83 1411.5,1796.5C 1372.76,1696.46 1333.93,1596.46 1295,1496.5C 1305.5,1600.13 1316,1703.8 1326.5,1807.5C 1292.15,1810.69 1257.82,1814.02 1223.5,1817.5C 1208.63,1670.45 1193.29,1523.45 1177.5,1376.5C 1237.23,1370.21 1296.9,1364.05 1356.5,1358C 1386.13,1432.76 1415.63,1507.6 1445,1582.5C 1457.82,1503.24 1470.32,1423.91 1482.5,1344.5C 1542.52,1338.3 1602.52,1331.97 1662.5,1325.5C 1677.61,1471.52 1692.95,1617.52 1708.5,1763.5C 1708.17,1764.5 1707.83,1765.5 1707.5,1766.5C 1665.4,1771.59 1623.4,1775.92 1581.5,1779.5C 1570.18,1677.58 1559.51,1575.58 1549.5,1473.5 Z"/></g>
<g><path style="opacity:0.997" fill="#db7c73" d="M 1182.5,1820.5 C 1181.83,1821.17 1181.17,1821.83 1180.5,1822.5C 1134.88,1827.66 1089.21,1832.16 1043.5,1836C 1032.24,1807.98 1020.57,1780.15 1008.5,1752.5C 969.878,1756.86 931.211,1761.03 892.5,1765C 891.151,1765.77 890.318,1766.94 890,1768.5C 884.487,1797.25 878.654,1825.91 872.5,1854.5C 837.578,1858.76 802.578,1862.43 767.5,1865.5C 765.219,1865.92 763.552,1865.26 762.5,1863.5C 792.215,1712.76 822.382,1562.09 853,1411.5C 900.792,1406.06 948.626,1400.73 996.5,1395.5C 998.485,1397.46 999.985,1399.79 1001,1402.5C 1061.79,1541.74 1122.29,1681.07 1182.5,1820.5 Z M 925.5,1537.5 C 927.284,1538.57 928.451,1540.24 929,1542.5C 944.113,1581.18 959.613,1619.68 975.5,1658C 951.569,1661.29 927.569,1663.62 903.5,1665C 911.531,1622.65 918.864,1580.15 925.5,1537.5 Z"/></g>
<g><path style="opacity:0.997" fill="#db7c73" d="M 509.5,1440.5 C 604.687,1440.05 666.687,1485.05 695.5,1575.5C 651.708,1585.46 607.708,1594.79 563.5,1603.5C 559.894,1586.96 553.061,1571.96 543,1558.5C 526.933,1542.15 507.766,1536.98 485.5,1543C 467.522,1548.31 455.355,1559.81 449,1577.5C 442.527,1596.45 439.36,1615.95 439.5,1636C 440.065,1672.29 445.565,1707.79 456,1742.5C 466.937,1773.1 488.604,1789.77 521,1792.5C 541.217,1791.89 558.217,1784.22 572,1769.5C 580.616,1757.94 584.116,1744.94 582.5,1730.5C 557.86,1733.13 533.193,1735.46 508.5,1737.5C 505.368,1706.18 502.368,1674.85 499.5,1643.5C 566.252,1636.77 632.919,1629.93 699.5,1623C 708.728,1705.11 717.728,1787.28 726.5,1869.5C 704.542,1872.43 682.542,1875.1 660.5,1877.5C 659.833,1877.17 659.167,1876.83 658.5,1876.5C 652.56,1861.28 645.06,1846.95 636,1833.5C 615.158,1865.37 585.991,1885.53 548.5,1894C 463.648,1913.5 394.481,1889.33 341,1821.5C 318.66,1787.82 304.993,1750.82 300,1710.5C 292.761,1662.4 297.095,1615.4 313,1569.5C 340.699,1498.16 392.532,1456.66 468.5,1445C 482.261,1442.96 495.928,1441.46 509.5,1440.5 Z"/></g>
<g><path style="opacity:0.443" fill="#e8b2ad" d="M 1549.5,1473.5 C 1548.83,1472.17 1548.17,1470.83 1547.5,1469.5C 1547.35,1468.45 1547.52,1467.45 1548,1466.5C 1549.2,1468.68 1549.7,1471.01 1549.5,1473.5 Z"/></g>
<g><path style="opacity:0.196" fill="#ebbab6" d="M 1182.5,1820.5 C 1183.04,1820.56 1183.38,1820.89 1183.5,1821.5C 1182.68,1822.39 1181.68,1822.72 1180.5,1822.5C 1181.17,1821.83 1181.83,1821.17 1182.5,1820.5 Z"/></g>
<g><path style="opacity:0.376" fill="#e9b6b1" d="M 762.5,1863.5 C 763.552,1865.26 765.219,1865.92 767.5,1865.5C 765.735,1866.46 763.735,1866.79 761.5,1866.5C 761.263,1865.21 761.596,1864.21 762.5,1863.5 Z"/></g>
</svg>
