<?xml version="1.0" standalone="no"?>
<!DOCTYPE svg PUBLIC "-//W3C//DTD SVG 20010904//EN"
 "http://www.w3.org/TR/2001/REC-SVG-20010904/DTD/svg10.dtd">
<svg version="1.0" xmlns="http://www.w3.org/2000/svg"
 width="768.000000pt" height="432.000000pt" viewBox="0 0 768.000000 432.000000"
 preserveAspectRatio="xMidYMid meet">

<g transform="translate(0.000000,432.000000) scale(0.100000,-0.100000)"
fill="#000000" stroke="none">
<path d="M3906 4304 c-3 -9 -5 -32 -4 -52 1 -36 1 -36 7 8 l6 45 848 1 849 0
-5 -30 c-2 -17 -10 -58 -17 -91 -7 -33 -10 -85 -7 -115 6 -50 4 -58 -20 -82
-15 -16 -21 -28 -15 -28 7 0 12 5 12 10 0 6 11 15 25 20 14 5 25 14 25 19 0 6
12 6 32 0 18 -5 35 -9 37 -9 3 0 -9 15 -26 33 -57 59 -66 118 -34 225 l19 62
-863 0 c-778 0 -863 -2 -869 -16z"/>
<path d="M5766 4311 c-4 -5 7 -12 24 -16 43 -10 47 -25 6 -25 -20 0 -36 -4
-36 -10 0 -5 6 -10 13 -10 6 0 21 -7 32 -16 19 -14 19 -15 -3 -20 -27 -8 -28
-16 -2 -32 13 -8 20 -23 20 -45 l0 -32 23 28 c14 18 30 28 42 25 16 -2 19 2
18 20 -3 22 -1 23 45 17 46 -6 47 -6 26 12 -11 10 -31 26 -45 35 -24 16 -23
16 16 7 78 -17 84 -12 35 31 -44 39 -46 39 -127 40 -45 0 -84 -4 -87 -9z"/>
<path d="M6190 4287 c0 -22 -11 -49 -30 -75 -16 -23 -30 -44 -30 -47 0 -3 11
-5 25 -5 17 0 25 -6 25 -17 0 -9 5 -32 12 -50 14 -38 3 -53 -38 -53 -26 0 -50
-25 -34 -35 5 -3 10 -1 10 4 0 6 9 11 20 11 49 0 131 52 122 78 -2 7 3 12 12
12 9 0 16 -7 16 -15 0 -8 5 -15 10 -15 6 0 10 13 10 28 0 16 7 37 15 48 19 25
19 52 0 70 -13 14 -15 11 -15 -25 0 -26 -5 -41 -12 -41 -9 0 -8 -4 2 -10 13
-8 12 -10 -3 -10 -23 0 -47 -23 -47 -45 0 -9 -4 -13 -10 -10 -5 3 -10 19 -10
35 0 16 -4 32 -10 35 -5 3 -10 -2 -10 -11 0 -10 -3 -15 -6 -11 -9 9 6 78 16
72 4 -3 6 5 2 17 -3 14 -2 19 6 14 7 -4 12 -27 12 -52 0 -72 17 -57 61 53 12
32 -42 83 -88 83 -31 0 -33 -2 -33 -33z"/>
<path d="M6360 4313 c0 -5 126 -6 280 -5 196 3 280 0 280 -7 0 -7 38 -11 110
-11 67 0 110 4 110 10 0 6 14 10 30 10 17 0 30 -4 30 -10 0 -5 28 -11 63 -13
34 -2 -29 -4 -140 -5 -196 -2 -203 -3 -203 -22 0 -19 7 -20 110 -20 103 0 110
-1 110 -20 0 -11 5 -20 10 -20 6 0 10 -9 10 -20 0 -19 7 -20 100 -20 l100 0 0
-80 0 -80 80 0 80 0 0 -80 c0 -73 -2 -80 -20 -80 -17 0 -20 -7 -20 -40 0 -40
0 -40 39 -40 22 0 42 -6 45 -12 5 -10 7 -10 12 0 3 6 14 12 25 12 16 0 19 7
19 40 0 76 19 40 23 -42 1 -46 4 54 5 221 1 167 4 302 6 300 2 -2 6 -154 10
-338 5 -292 4 -333 -9 -328 -8 4 -17 2 -20 -3 -4 -6 5 -10 19 -10 l26 0 0 360
0 360 -660 0 c-363 0 -660 -3 -660 -7z m1143 -10 c-35 -2 -91 -2 -125 0 -35 2
-7 3 62 3 69 0 97 -1 63 -3z"/>
<path d="M6337 4287 c-11 -29 -9 -43 4 -30 6 6 9 19 7 29 -3 18 -4 18 -11 1z"/>
<path d="M6368 4283 c6 -2 18 -2 25 0 6 3 1 5 -13 5 -14 0 -19 -2 -12 -5z"/>
<path d="M7080 4180 c0 -13 -7 -20 -20 -20 -17 0 -20 -7 -20 -40 0 -33 3 -40
19 -40 11 0 22 -6 25 -12 5 -10 7 -10 12 0 3 6 14 12 25 12 16 0 19 7 19 40 0
33 -3 40 -20 40 -13 0 -20 7 -20 20 0 11 -4 20 -10 20 -5 0 -10 -9 -10 -20z"/>
<path d="M3598 4183 c7 -3 16 -2 19 1 4 3 -2 6 -13 5 -11 0 -14 -3 -6 -6z"/>
<path d="M3930 4140 c6 -11 13 -20 16 -20 2 0 0 9 -6 20 -6 11 -13 20 -16 20
-2 0 0 -9 6 -20z"/>
<path d="M5667 4133 c-25 -29 -26 -73 -1 -97 37 -38 101 2 90 56 -10 53 -58
74 -89 41z"/>
<path d="M7240 4100 c0 -17 -7 -20 -40 -20 l-40 0 0 -40 0 -40 40 0 c33 0 40
-3 40 -20 0 -11 5 -20 10 -20 6 0 10 9 10 20 0 13 7 20 20 20 17 0 20 7 20 40
0 33 -3 40 -20 40 -13 0 -20 7 -20 20 0 11 -4 20 -10 20 -5 0 -10 -9 -10 -20z"/>
<path d="M3960 4106 c0 -3 9 -10 20 -16 11 -6 20 -8 20 -6 0 3 -9 10 -20 16
-11 6 -20 8 -20 6z"/>
<path d="M5970 4072 c-49 -16 -68 -83 -32 -115 23 -21 71 -22 98 -2 12 8 25
11 29 7 5 -4 5 -2 1 5 -3 6 2 16 11 22 10 6 13 11 8 11 -6 0 -16 -5 -23 -12
-9 -9 -12 -5 -12 18 0 42 -44 78 -80 66z"/>
<path d="M6168 4073 c7 -3 16 -2 19 1 4 3 -2 6 -13 5 -11 0 -14 -3 -6 -6z"/>
<path d="M5750 4002 c0 -4 7 -18 17 -31 16 -24 16 -24 -10 -19 -26 5 -39 -9
-14 -16 6 -2 29 -9 50 -16 29 -9 42 -9 50 -1 8 8 4 11 -16 11 -29 0 -38 24
-12 34 20 7 19 32 -1 40 -22 9 -64 7 -64 -2z"/>
<path d="M5630 3964 c0 -14 43 -54 58 -54 15 0 15 -12 0 -30 -7 -8 -4 -7 8 3
12 10 29 15 40 12 10 -4 -3 5 -31 19 -27 14 -56 33 -62 43 -7 9 -13 12 -13 7z"/>
<path d="M4928 3953 c7 -3 16 -2 19 1 4 3 -2 6 -13 5 -11 0 -14 -3 -6 -6z"/>
<path d="M7400 3940 c0 -13 -7 -20 -20 -20 -17 0 -20 -7 -20 -40 0 -33 3 -40
20 -40 13 0 20 -7 20 -20 0 -11 5 -20 10 -20 6 0 10 9 10 20 0 13 7 20 20 20
17 0 20 7 20 40 0 33 -3 40 -20 40 -13 0 -20 7 -20 20 0 11 -4 20 -10 20 -5 0
-10 -9 -10 -20z"/>
<path d="M5150 3940 l-115 -6 118 -2 c72 -1 117 2 117 8 0 6 -1 9 -2 8 -2 -1
-55 -5 -118 -8z"/>
<path d="M5546 3925 c-3 -9 0 -15 9 -15 9 0 12 6 9 15 -4 8 -7 15 -9 15 -2 0
-5 -7 -9 -15z"/>
<path d="M6025 3930 c-3 -5 -26 -10 -51 -10 -49 0 -57 -11 -19 -28 37 -17 50
-15 64 11 l11 22 -6 -24 c-4 -16 -3 -21 5 -17 6 4 10 18 9 31 -3 28 -4 29 -13
15z"/>
<path d="M4568 3913 c6 -2 18 -2 25 0 6 3 1 5 -13 5 -14 0 -19 -2 -12 -5z"/>
<path d="M4465 3900 c-3 -5 -1 -10 4 -10 6 0 11 5 11 10 0 6 -2 10 -4 10 -3 0
-8 -4 -11 -10z"/>
<path d="M4818 3903 c7 -3 16 -2 19 1 4 3 -2 6 -13 5 -11 0 -14 -3 -6 -6z"/>
<path d="M5378 3903 c7 -3 16 -2 19 1 4 3 -2 6 -13 5 -11 0 -14 -3 -6 -6z"/>
<path d="M5508 3903 c7 -3 16 -2 19 1 4 3 -2 6 -13 5 -11 0 -14 -3 -6 -6z"/>
<path d="M3827 3858 c-29 -29 -38 -85 -13 -75 8 3 17 1 20 -6 3 -7 3 -1 0 12
-5 17 -3 21 6 16 10 -6 12 -1 8 18 -3 15 -1 28 5 30 5 1 8 9 5 17 -3 11 -11 8
-31 -12z"/>
<path d="M5788 3873 c7 -3 16 -2 19 1 4 3 -2 6 -13 5 -11 0 -14 -3 -6 -6z"/>
<path d="M5816 3855 c-3 -8 -1 -15 4 -15 6 0 10 7 10 15 0 8 -2 15 -4 15 -2 0
-6 -7 -10 -15z"/>
<path d="M5638 3853 c7 -3 16 -2 19 1 4 3 -2 6 -13 5 -11 0 -14 -3 -6 -6z"/>
<path d="M5845 3840 c4 -7 22 -10 41 -8 23 3 35 -1 39 -11 5 -14 7 -14 15 -1
16 24 12 26 -46 29 -40 1 -54 -1 -49 -9z"/>
<path d="M5920 3766 c0 -8 4 -17 9 -20 5 -4 7 3 4 14 -6 23 -13 26 -13 6z"/>
<path d="M277 3730 c-26 -30 -47 -86 -47 -124 0 -16 5 -18 35 -13 l35 6 0 -49
c0 -27 7 -68 16 -90 14 -34 20 -40 42 -38 22 3 31 -6 63 -61 21 -35 47 -74 58
-87 18 -21 20 -33 15 -92 -7 -89 -7 -88 -47 -96 l-35 -6 24 -58 c24 -60 50
-96 74 -104 13 -4 13 -7 1 -21 -19 -24 -7 -45 34 -63 19 -8 35 -19 35 -24 0
-16 72 -32 130 -28 l55 3 3 38 3 37 58 0 57 0 -4 35 c-2 19 -8 38 -13 41 -20
12 -8 24 12 13 15 -7 24 -8 28 -1 3 6 26 22 51 36 25 14 39 26 33 26 -7 0 -13
6 -13 14 0 23 -27 26 -46 5 -21 -23 -32 -24 -55 -3 -14 13 -21 13 -40 3 -19
-10 -25 -9 -39 7 -17 20 -40 29 -40 16 0 -4 6 -14 13 -21 10 -11 10 -14 0 -18
-7 -3 -13 -9 -13 -14 0 -6 4 -8 9 -5 5 3 11 -3 14 -14 3 -11 1 -23 -4 -26 -17
-10 -9 -34 12 -34 13 0 18 -4 13 -12 -4 -6 1 -17 11 -25 18 -12 18 -13 -4 -13
-12 0 -19 4 -16 10 4 6 -9 10 -33 10 -23 0 -45 6 -52 15 -7 8 -21 15 -30 15
-10 0 -21 6 -24 13 -5 10 -7 10 -12 0 -17 -38 -57 28 -47 78 5 27 4 31 -10 26
-13 -5 -20 5 -32 45 -18 62 -20 248 -3 312 l12 44 80 21 c45 11 90 22 101 25
15 3 14 4 -5 5 -20 1 -29 9 -39 38 -13 35 -12 38 8 51 11 8 21 22 21 32 0 23
-44 102 -70 125 -23 21 -25 17 -35 -58 -5 -39 -11 -50 -31 -57 -26 -10 -64
-64 -64 -92 0 -22 -1 -22 -66 -1 -45 14 -55 22 -68 52 -16 41 -13 51 15 51 48
0 26 52 -41 100 -47 33 -65 33 -93 0z"/>
<path d="M892 3713 c-36 -81 -36 -90 -6 -118 22 -21 25 -30 20 -59 l-7 -35
-67 -4 c-62 -3 -60 -3 23 -5 80 -2 170 -17 217 -37 9 -4 19 -23 23 -43 3 -21
11 -44 16 -52 10 -13 10 -13 6 0 -2 8 -14 60 -27 115 -12 55 -26 107 -31 116
-4 9 -28 27 -53 40 -38 20 -47 30 -52 59 -8 40 -21 70 -33 70 -4 0 -17 -21
-29 -47z"/>
<path d="M3821 3744 c0 -11 3 -14 6 -6 3 7 2 16 -1 19 -3 4 -6 -2 -5 -13z"/>
<path d="M5962 3703 c6 -7 16 -13 22 -13 6 0 5 4 -3 9 -11 7 -11 9 0 14 8 3 4
4 -8 4 -17 -1 -19 -4 -11 -14z"/>
<path d="M7550 3683 c19 -3 38 -10 42 -16 5 -8 8 -6 8 6 0 14 -8 17 -42 15
-41 -1 -41 -1 -8 -5z"/>
<path d="M6040 3673 c8 -3 21 -10 28 -16 9 -7 11 -6 6 7 -3 9 -16 16 -28 15
-14 0 -16 -2 -6 -6z"/>
<path d="M6873 3673 c9 -2 23 -2 30 0 6 3 -1 5 -18 5 -16 0 -22 -2 -12 -5z"/>
<path d="M7224 3668 c-5 -8 -2 -9 10 -5 11 4 29 -1 46 -13 15 -11 41 -19 57
-19 26 2 26 2 -7 9 -19 4 -29 8 -22 9 6 0 12 9 12 19 0 14 -2 14 -9 3 -8 -12
-14 -13 -36 -3 -33 15 -42 15 -51 0z"/>
<path d="M3777 3650 c-9 -11 -24 -20 -34 -20 -9 0 -14 -3 -10 -6 10 -10 47 7
57 27 14 24 9 24 -13 -1z"/>
<path d="M6628 3663 c6 -2 18 -2 25 0 6 3 1 5 -13 5 -14 0 -19 -2 -12 -5z"/>
<path d="M6676 3661 c-3 -4 6 -8 20 -9 13 -1 24 0 24 2 0 7 -40 14 -44 7z"/>
<path d="M7185 3660 c-3 -5 1 -10 10 -10 9 0 13 5 10 10 -3 6 -8 10 -10 10 -2
0 -7 -4 -10 -10z"/>
<path d="M7370 3661 c0 -5 9 -7 20 -4 11 3 20 7 20 9 0 2 -9 4 -20 4 -11 0
-20 -4 -20 -9z"/>
<path d="M6808 3653 c7 -3 16 -2 19 1 4 3 -2 6 -13 5 -11 0 -14 -3 -6 -6z"/>
<path d="M6965 3643 c34 -20 176 -26 195 -7 8 8 -4 8 -40 0 -48 -9 -105 -3
-165 18 -11 4 -6 -1 10 -11z"/>
<path d="M6533 3633 c9 -2 25 -2 35 0 9 3 1 5 -18 5 -19 0 -27 -2 -17 -5z"/>
<path d="M7406 3625 c10 -8 23 -15 28 -15 6 0 1 7 -10 15 -10 8 -23 15 -28 15
-6 0 -1 -7 10 -15z"/>
<path d="M7510 3623 c-17 -9 -20 -13 -8 -13 9 0 20 5 23 10 4 7 13 6 26 -1 11
-5 25 -9 30 -7 5 2 -3 8 -18 14 -21 7 -35 7 -53 -3z"/>
<path d="M7588 3633 c7 -3 16 -2 19 1 4 3 -2 6 -13 5 -11 0 -14 -3 -6 -6z"/>
<path d="M6239 3607 c-49 -24 -116 -92 -143 -145 -9 -18 -20 -53 -25 -78 -8
-40 -6 -49 13 -71 19 -22 30 -26 75 -25 29 1 58 5 64 9 6 4 38 6 70 5 40 -2
59 1 62 11 3 7 -4 39 -16 72 -13 36 -23 97 -26 153 -4 58 -10 92 -17 92 -6 -1
-32 -11 -57 -23z m52 -24 c1 -74 24 -182 46 -226 7 -15 12 -31 9 -35 -3 -5
-41 -8 -85 -7 -44 1 -78 -2 -75 -6 7 -13 -37 -11 -76 2 l-32 12 6 55 c9 77 63
155 136 199 30 18 58 33 63 33 4 0 7 -12 8 -27z"/>
<path d="M6148 3593 c7 -3 16 -2 19 1 4 3 -2 6 -13 5 -11 0 -14 -3 -6 -6z"/>
<path d="M6364 3585 c-24 -18 -7 -19 26 0 16 9 19 14 9 15 -8 0 -24 -7 -35
-15z"/>
<path d="M3660 3455 c-24 -14 -24 -14 -3 -15 12 0 24 -6 27 -12 3 -7 3 -2 0
11 -4 16 -3 21 6 16 6 -4 10 -17 9 -28 -3 -44 1 -68 11 -62 6 3 11 3 11 -2 1
-4 3 -17 4 -28 2 -11 8 -35 14 -52 6 -20 6 -33 0 -33 -5 0 -9 11 -9 25 0 14
-3 25 -8 25 -4 0 -8 -22 -8 -50 0 -32 -7 -56 -18 -68 -14 -17 -15 -29 -7 -88
5 -38 18 -104 28 -146 13 -50 17 -81 11 -90 -8 -10 -9 -10 -6 2 4 17 -49 73
-57 60 -3 -4 2 -13 10 -20 8 -7 12 -17 8 -23 -4 -6 -11 -3 -20 9 -12 17 -14
17 -30 2 -14 -15 -14 -19 -2 -35 13 -16 12 -17 -3 -5 -14 12 -21 10 -47 -9
-38 -28 -39 -33 -3 -26 l27 6 -28 -12 c-26 -10 -28 -15 -22 -47 4 -19 13 -39
21 -43 8 -5 12 -12 9 -18 -4 -5 0 -9 7 -10 7 0 2 -5 -11 -10 -13 -5 -26 -7
-29 -4 -3 3 0 5 6 5 7 0 12 4 12 9 0 4 -11 7 -25 6 -14 -2 -25 1 -25 7 0 6 8
7 18 4 16 -6 16 -5 0 8 -10 7 -18 21 -18 30 0 9 -4 16 -10 16 -5 0 -10 8 -10
19 0 18 -34 31 -82 31 -19 0 -19 -2 -6 -22 19 -29 28 -77 17 -84 -5 -3 -9 -9
-9 -15 0 -12 27 -12 32 0 2 5 9 3 16 -5 11 -12 9 -14 -10 -15 -22 0 -22 -1 -3
-9 23 -9 18 -12 -55 -28 l-45 -11 45 5 c155 17 306 73 338 125 6 9 12 44 13
78 1 33 6 58 10 55 4 -2 22 8 40 24 l32 28 -13 70 c-20 103 -87 367 -110 432
-13 36 -15 37 -50 17z m97 -247 c-3 -7 -5 -2 -5 12 0 14 2 19 5 13 2 -7 2 -19
0 -25z m23 -59 c0 -6 -4 -7 -10 -4 -5 3 -10 11 -10 16 0 6 5 7 10 4 6 -3 10
-11 10 -16z m-86 -304 c-4 -8 -8 -15 -10 -15 -2 0 -4 7 -4 15 0 8 4 15 10 15
5 0 7 -7 4 -15z m26 -101 c0 -2 -10 -9 -22 -15 -20 -11 -21 -10 -11 3 7 8 10
18 6 22 -4 4 0 4 10 0 9 -3 17 -8 17 -10z m-50 -36 c0 -4 -11 -8 -25 -8 -14 0
-25 4 -25 10 0 5 11 9 25 8 14 -1 25 -6 25 -10z"/>
<path d="M3623 3405 c0 -22 2 -30 4 -17 2 12 2 30 0 40 -3 9 -5 -1 -4 -23z"/>
<path d="M3656 3307 c-5 -54 -6 -101 -2 -104 3 -4 6 19 6 50 0 38 5 61 16 72
11 11 13 19 6 28 -5 7 -12 21 -14 32 -3 11 -8 -24 -12 -78z"/>
<path d="M4198 3383 c12 -2 32 -2 45 0 12 2 2 4 -23 4 -25 0 -35 -2 -22 -4z"/>
<path d="M2066 3324 c-9 -24 -7 -27 9 -10 17 17 19 26 6 26 -5 0 -12 -7 -15
-16z"/>
<path d="M4115 3329 c-4 -6 -5 -12 -2 -15 2 -3 7 2 10 11 7 17 1 20 -8 4z"/>
<path d="M4714 3326 c-3 -8 -4 -25 -2 -38 3 -17 5 -13 9 15 5 38 2 47 -7 23z"/>
<path d="M4821 3324 c0 -11 3 -14 6 -6 3 7 2 16 -1 19 -3 4 -6 -2 -5 -13z"/>
<path d="M1914 3299 c-3 -6 -2 -15 3 -20 5 -5 9 -1 9 11 0 23 -2 24 -12 9z"/>
<path d="M2081 3294 c0 -11 3 -14 6 -6 3 7 2 16 -1 19 -3 4 -6 -2 -5 -13z"/>
<path d="M3686 3301 c-4 -7 -5 -15 -2 -18 9 -9 19 4 14 18 -4 11 -6 11 -12 0z"/>
<path d="M5360 3299 c-78 -21 -154 -76 -184 -131 -17 -32 -26 -37 -93 -53 -87
-20 -134 -53 -117 -82 22 -37 181 -90 235 -78 25 6 29 3 29 -14 0 -11 5 -32
11 -48 9 -26 11 -26 21 -10 5 11 8 30 5 43 -2 14 -1 27 4 30 4 2 68 7 140 9
124 4 227 23 254 47 28 24 34 7 38 -99 l3 -108 2 132 c2 114 -1 140 -19 189
-52 138 -190 210 -329 173z"/>
<path d="M2334 3276 c-7 -28 2 -49 17 -40 6 3 5 11 -2 21 -10 11 -10 16 0 23
9 5 10 10 2 14 -6 4 -13 -4 -17 -18z"/>
<path d="M4541 3246 c62 -70 109 -137 109 -156 0 -35 -44 -57 -132 -66 l-83
-9 60 -3 c77 -4 135 15 154 49 21 38 2 76 -78 158 -36 37 -50 49 -30 27z"/>
<path d="M4106 3258 c-20 -28 -21 -72 -2 -88 41 -33 99 25 80 79 -13 36 -56
41 -78 9z"/>
<path d="M4951 3243 c0 -12 -13 -31 -27 -42 -19 -15 -22 -21 -11 -21 21 0 50
44 44 67 -4 15 -5 14 -6 -4z"/>
<path d="M1003 3229 c-7 -7 -13 -27 -13 -45 0 -19 -6 -34 -15 -38 -24 -9 -17
-33 10 -38 18 -4 25 -1 25 11 1 13 3 13 12 -3 10 -18 11 -18 24 5 20 35 17 65
-8 94 -19 21 -25 24 -35 14z"/>
<path d="M572 3200 c0 -14 2 -19 5 -12 2 6 2 18 0 25 -3 6 -5 1 -5 -13z"/>
<path d="M700 3200 c-24 -24 -26 -60 -4 -102 l17 -32 28 32 c32 36 37 67 13
100 -19 27 -28 28 -54 2z"/>
<path d="M4061 3213 c-1 -6 -4 -20 -7 -30 -5 -17 -5 -17 6 0 6 10 9 23 6 30
-3 9 -5 9 -5 0z"/>
<path d="M4325 3196 c-40 -40 -9 -106 50 -106 58 0 79 52 39 99 -31 37 -57 39
-89 7z"/>
<path d="M1938 3193 c7 -3 16 -2 19 1 4 3 -2 6 -13 5 -11 0 -14 -3 -6 -6z"/>
<path d="M1987 3163 c9 -24 19 -43 24 -43 11 0 0 32 -21 60 l-20 25 17 -42z"/>
<path d="M4212 3169 c2 -6 8 -10 13 -10 5 0 11 4 13 10 2 6 -4 11 -13 11 -9 0
-15 -5 -13 -11z"/>
<path d="M4838 3173 c12 -2 30 -2 40 0 9 3 -1 5 -23 4 -22 0 -30 -2 -17 -4z"/>
<path d="M4053 3148 c5 -14 1 -18 -21 -19 -21 -1 -22 -2 -7 -6 11 -3 26 -10
32 -15 21 -17 28 21 8 40 -17 16 -17 16 -12 0z"/>
<path d="M1168 3143 c6 -2 18 -2 25 0 6 3 1 5 -13 5 -14 0 -19 -2 -12 -5z"/>
<path d="M880 3125 c0 -10 10 -15 31 -15 27 0 30 2 19 15 -7 8 -21 15 -31 15
-11 0 -19 -7 -19 -15z"/>
<path d="M1130 3125 c-6 -8 -10 -19 -8 -24 1 -6 8 1 15 14 13 28 11 31 -7 10z"/>
<path d="M1910 3135 c0 -6 11 -27 25 -48 22 -32 30 -37 63 -36 l37 2 -38 6
c-31 5 -43 14 -63 46 -13 22 -24 35 -24 30z"/>
<path d="M4168 3118 c11 -42 28 -51 62 -33 39 20 38 32 -2 40 -18 4 -41 9 -50
11 -13 4 -15 0 -10 -18z"/>
<path d="M3903 3094 c-5 -14 32 -64 48 -64 5 0 -3 11 -17 25 -14 15 -23 32
-20 40 3 8 3 15 0 15 -2 0 -7 -7 -11 -16z"/>
<path d="M605 3090 c3 -5 8 -10 11 -10 2 0 4 5 4 10 0 6 -5 10 -11 10 -5 0 -7
-4 -4 -10z"/>
<path d="M1055 3090 c3 -5 8 -10 11 -10 2 0 4 5 4 10 0 6 -5 10 -11 10 -5 0
-7 -4 -4 -10z"/>
<path d="M363 3083 c9 -2 23 -2 30 0 6 3 -1 5 -18 5 -16 0 -22 -2 -12 -5z"/>
<path d="M935 3070 c-3 -6 1 -7 9 -4 18 7 21 14 7 14 -6 0 -13 -4 -16 -10z"/>
<path d="M1110 3045 c0 -25 -4 -35 -15 -35 -13 0 -14 -2 -3 -14 16 -17 23 -7
32 47 4 23 3 37 -4 37 -5 0 -10 -16 -10 -35z"/>
<path d="M652 3058 c-8 -10 -3 -13 24 -15 19 -1 34 3 34 9 0 5 -6 8 -14 5 -7
-3 -18 -1 -23 4 -6 6 -14 5 -21 -3z"/>
<path d="M2058 3063 c6 -2 18 -2 25 0 6 3 1 5 -13 5 -14 0 -19 -2 -12 -5z"/>
<path d="M1030 3048 c0 -13 7 -18 28 -17 21 1 22 2 7 6 -11 3 -23 10 -27 17
-5 7 -8 5 -8 -6z"/>
<path d="M2448 3053 c6 -2 18 -2 25 0 6 3 1 5 -13 5 -14 0 -19 -2 -12 -5z"/>
<path d="M4350 3040 c-12 -8 -10 -10 8 -10 13 0 20 4 17 10 -7 12 -6 12 -25 0z"/>
<path d="M2325 3011 c-11 -22 -24 -31 -47 -34 -29 -4 -28 -4 5 -3 34 1 41 5
52 34 17 40 11 42 -10 3z"/>
<path d="M4110 3026 c28 -15 148 -41 155 -34 3 3 -27 11 -65 18 -39 7 -73 17
-76 22 -3 4 -13 8 -22 8 -12 -1 -10 -5 8 -14z"/>
<path d="M4048 3023 c6 -2 18 -2 25 0 6 3 1 5 -13 5 -14 0 -19 -2 -12 -5z"/>
<path d="M4008 3013 c7 -3 16 -2 19 1 4 3 -2 6 -13 5 -11 0 -14 -3 -6 -6z"/>
<path d="M4330 3010 c0 -5 14 -10 32 -10 36 0 35 4 -4 14 -17 4 -28 2 -28 -4z"/>
<path d="M4348 2969 c78 -30 108 -91 50 -102 -21 -4 -21 -4 4 -6 35 -1 46 30
23 65 -16 26 -86 64 -115 63 -8 0 9 -9 38 -20z"/>
<path d="M2992 2945 c0 -16 2 -22 5 -12 2 9 2 23 0 30 -3 6 -5 -1 -5 -18z"/>
<path d="M4219 2953 c-13 -17 -13 -17 6 -3 11 8 22 16 24 17 2 2 0 3 -6 3 -6
0 -17 -8 -24 -17z"/>
<path d="M4200 2921 c0 -10 29 -36 34 -30 1 2 -6 12 -16 22 -10 9 -18 13 -18
8z"/>
<path d="M5370 2883 c0 -44 13 -69 29 -59 21 14 8 96 -15 96 -10 0 -14 -12
-14 -37z"/>
<path d="M4280 2866 c14 -8 41 -15 60 -14 l35 1 -40 7 c-22 4 -49 10 -60 14
-13 5 -11 2 5 -8z"/>
<path d="M7327 2834 c6 -18 19 -18 26 -1 3 7 -3 13 -14 14 -12 1 -16 -3 -12
-13z"/>
<path d="M7289 2813 c-13 -16 -12 -17 4 -4 16 13 21 21 13 21 -2 0 -10 -8 -17
-17z"/>
<path d="M5240 2809 c0 -32 13 -60 26 -55 8 3 11 0 8 -9 -3 -8 5 -25 19 -39
14 -14 22 -27 19 -30 -3 -3 6 -6 20 -6 18 0 27 7 32 23 9 36 7 43 -20 70 -22
23 -29 25 -48 15 -19 -10 -20 -10 -7 6 16 20 15 22 -22 31 -19 5 -27 3 -27 -6z"/>
<path d="M1812 2750 c0 -19 2 -27 5 -17 2 9 2 25 0 35 -3 9 -5 1 -5 -18z"/>
<path d="M3155 2764 c-20 -15 -12 -17 19 -5 11 4 15 10 10 13 -5 4 -18 0 -29
-8z"/>
<path d="M2262 2710 c0 -19 2 -27 5 -17 2 9 2 25 0 35 -3 9 -5 1 -5 -18z"/>
<path d="M5701 2704 c0 -11 3 -14 6 -6 3 7 2 16 -1 19 -3 4 -6 -2 -5 -13z"/>
<path d="M3237 2659 c7 -7 15 -10 18 -7 3 3 -2 9 -12 12 -14 6 -15 5 -6 -5z"/>
<path d="M1830 2610 c0 -25 4 -39 10 -35 6 3 10 19 10 35 0 16 -4 32 -10 35
-6 4 -10 -10 -10 -35z"/>
<path d="M3277 2639 c7 -7 15 -10 18 -7 3 3 -2 9 -12 12 -14 6 -15 5 -6 -5z"/>
<path d="M6930 2647 c-3 -3 -25 -7 -50 -10 -56 -5 -57 -10 -59 -193 -1 -118 1
-134 20 -157 27 -36 83 -49 192 -46 51 1 119 -1 152 -6 55 -7 67 -5 125 23 36
16 82 32 103 36 29 5 41 14 49 34 6 15 19 43 29 63 19 37 26 123 11 133 -5 3
-9 -8 -9 -25 0 -16 -9 -39 -21 -52 -27 -29 -28 -37 -1 -37 20 0 21 -1 5 -25
-9 -13 -16 -31 -16 -38 0 -21 -25 -39 -68 -47 -20 -4 -44 -10 -53 -14 -14 -6
-15 11 -15 148 1 171 0 173 -64 196 -35 12 -321 27 -330 17z m-7 -118 c32 -14
51 -51 45 -83 -3 -14 -5 -26 -4 -26 1 0 19 9 40 19 42 22 64 18 117 -20 56
-40 23 -84 -40 -53 -25 12 -38 14 -63 5 -44 -16 -56 -14 -63 9 -5 16 -10 18
-25 10 -10 -6 -27 -10 -37 -10 -22 0 -63 35 -63 52 0 9 3 9 12 0 20 -20 56
-14 74 13 15 23 15 27 0 50 -9 14 -23 25 -32 25 -8 0 -12 5 -9 10 8 13 18 13
48 -1z m358 -28 c34 -27 32 -86 -5 -117 -33 -29 -65 -30 -100 -3 -31 25 -35
44 -5 28 31 -16 69 3 69 35 0 40 -11 56 -37 56 -13 0 -21 4 -18 10 10 17 71
11 96 -9z m-191 -171 c0 -4 -11 -10 -24 -12 -41 -8 -79 26 -38 34 19 5 62 -11
62 -22z"/>
<path d="M7462 2612 c-2 -36 -20 -69 -69 -125 -18 -20 -33 -47 -33 -60 0 -28
26 -67 46 -67 18 0 17 10 -1 34 -23 30 -18 52 20 90 19 20 35 43 35 52 0 10 5
14 15 10 17 -6 20 5 6 20 -5 5 -11 25 -14 44 l-4 35 -1 -33z"/>
<path d="M2430 2415 c0 -5 10 -21 21 -35 13 -17 17 -18 10 -5 -17 33 -31 51
-31 40z"/>
<path d="M5210 2088 c0 -21 44 -147 75 -217 22 -48 35 -64 70 -82 40 -21 43
-26 49 -73 8 -63 26 -117 71 -206 32 -64 38 -70 72 -75 81 -13 92 -17 124 -41
18 -13 40 -24 49 -24 21 0 59 41 103 111 l35 55 -19 43 c-10 24 -16 48 -12 54
3 6 1 7 -5 3 -22 -13 -12 5 23 46 42 49 58 113 38 145 -12 20 -11 28 8 64 20
41 20 43 3 113 -9 39 -18 72 -19 74 -2 2 -23 -16 -47 -40 -58 -58 -138 -110
-158 -102 -8 3 -40 8 -70 11 -30 3 -60 9 -65 14 -6 4 -58 25 -115 45 -58 20
-129 50 -157 66 -39 22 -53 26 -53 16z m322 -140 c3 -8 20 -12 44 -10 21 1 53
-2 69 -7 23 -7 25 -9 9 -10 -14 -1 -21 -7 -20 -18 1 -14 -9 -17 -56 -19 -53
-2 -57 0 -68 27 -12 27 -7 49 10 49 4 0 10 -6 12 -12z"/>
<path d="M5598 1923 c7 -3 16 -2 19 1 4 3 -2 6 -13 5 -11 0 -14 -3 -6 -6z"/>
<path d="M3845 1905 c-40 -22 -39 -19 -21 -54 24 -46 20 -119 -9 -177 -43 -84
-49 -89 -87 -73 -24 10 -86 14 -227 14 l-193 0 -37 45 c-101 126 -131 137
-203 73 -40 -37 -98 -140 -98 -176 0 -23 44 -39 88 -31 33 6 35 6 28 -17 -4
-13 -10 -55 -13 -94 -5 -60 -10 -74 -33 -95 -35 -31 -45 -72 -49 -190 -1 -35
-4 -42 -12 -30 -8 11 -9 9 -3 -10 14 -52 62 -80 138 -80 59 0 147 -43 171 -82
9 -17 36 -38 59 -49 78 -35 183 -19 334 51 l85 40 38 -35 c25 -22 49 -35 67
-35 48 0 104 50 121 107 13 46 4 68 -32 84 -28 12 -32 18 -29 49 1 19 4 101 6
181 l3 146 47 59 c51 65 86 146 86 200 0 19 -9 57 -21 84 -36 84 -137 131
-204 95z m-438 -309 c1 -1 -1 -20 -4 -44 -5 -39 -7 -41 -32 -36 -29 6 -69 23
-88 37 -10 7 -8 14 5 33 15 21 22 23 67 17 28 -3 51 -6 52 -7z m278 4 c22 -1
34 -4 27 -7 -10 -4 -9 -8 5 -19 10 -7 23 -13 28 -14 6 0 3 5 -5 10 -13 8 -12
10 3 10 9 0 17 -5 17 -12 0 -6 3 -9 6 -5 8 8 44 -25 38 -35 -3 -4 2 -5 10 -2
8 3 25 -1 38 -10 19 -14 20 -16 5 -16 -10 0 -15 -4 -12 -10 4 -6 -7 -10 -27
-10 -18 -1 -59 -7 -90 -14 -50 -12 -58 -12 -58 0 0 8 -4 14 -10 14 -5 0 -10 6
-10 13 0 31 -60 69 -155 98 -27 8 -26 8 12 5 24 -2 45 0 48 5 3 5 25 7 48 5
23 -2 60 -5 82 -6z m-549 -145 c18 -43 18 -42 -8 -41 -20 1 -23 -5 -26 -39 -2
-22 -8 -44 -14 -50 -16 -15 -5 129 11 149 18 22 20 21 37 -19z m266 -77 c9 -7
21 -29 27 -49 7 -20 21 -45 31 -54 39 -36 15 -138 -35 -151 -30 -7 -81 11 -89
33 -3 8 -9 12 -14 9 -8 -5 -9 -3 -18 96 -6 65 -5 68 24 98 33 33 50 37 74 18z
m-6 -309 c10 -17 -13 -36 -27 -22 -12 12 -4 33 11 33 5 0 12 -5 16 -11z m-48
-11 c-6 -18 -28 -21 -28 -4 0 9 7 16 16 16 9 0 14 -5 12 -12z m82 -27 c0 -14
-18 -23 -30 -16 -6 4 -8 11 -5 16 8 12 35 12 35 0z m-56 -27 c28 -27 14 -74
-23 -74 -18 0 -51 29 -51 46 0 17 28 44 45 44 7 0 21 -7 29 -16z"/>
<path d="M3327 1322 c-34 -37 -11 -133 34 -147 33 -11 63 25 61 72 -3 70 -59
115 -95 75z"/>
<path d="M1210 1811 c0 -6 4 -13 10 -16 6 -3 7 1 4 9 -7 18 -14 21 -14 7z"/>
<path d="M4385 1652 c51 -52 72 -85 84 -137 17 -70 31 -90 31 -44 0 19 5 40
12 47 9 9 9 12 -3 12 -9 0 -20 9 -25 19 -14 31 -85 111 -108 122 -15 8 -13 3
9 -19z"/>
<path d="M228 1663 c6 -2 18 -2 25 0 6 3 1 5 -13 5 -14 0 -19 -2 -12 -5z"/>
<path d="M95 1620 c-3 -5 -2 -10 4 -10 5 0 13 5 16 10 3 6 2 10 -4 10 -5 0
-13 -4 -16 -10z"/>
<path d="M0 795 c0 -578 3 -795 11 -795 8 0 10 214 8 795 -2 437 -7 795 -11
795 -5 0 -8 -358 -8 -795z"/>
<path d="M32 1530 c0 -19 2 -27 5 -17 2 9 2 25 0 35 -3 9 -5 1 -5 -18z"/>
<path d="M4940 1538 c-7 -16 -20 -28 -29 -29 -11 -1 -10 -3 4 -7 18 -7 73 -40
85 -52 3 -3 19 -12 35 -20 17 -9 31 -21 31 -28 1 -7 2 -24 3 -38 1 -23 2 -24
17 -10 8 9 18 16 22 16 10 0 62 46 62 54 0 4 -4 4 -10 1 -5 -3 -10 -1 -10 5 0
6 -4 9 -9 5 -5 -3 -12 -1 -16 5 -3 5 0 10 7 10 8 0 6 6 -5 18 -14 13 -34 17
-86 17 -40 -1 -68 4 -69 10 0 5 -5 24 -10 40 l-9 30 -13 -27z"/>
<path d="M520 1501 c0 -6 4 -13 10 -16 6 -3 7 1 4 9 -7 18 -14 21 -14 7z"/>
<path d="M570 1436 c0 -2 8 -10 18 -17 15 -13 16 -12 3 4 -13 16 -21 21 -21
13z"/>
<path d="M643 1325 c0 -8 4 -12 9 -9 5 3 6 10 3 15 -9 13 -12 11 -12 -6z"/>
<path d="M798 1333 c7 -3 16 -2 19 1 4 3 -2 6 -13 5 -11 0 -14 -3 -6 -6z"/>
<path d="M5083 1295 c0 -22 2 -30 4 -17 2 12 2 30 0 40 -3 9 -5 -1 -4 -23z"/>
<path d="M4873 1266 c-7 -33 -11 -61 -9 -63 9 -9 27 58 24 88 -3 30 -4 27 -15
-25z"/>
<path d="M4291 1274 c0 -11 3 -14 6 -6 3 7 2 16 -1 19 -3 4 -6 -2 -5 -13z"/>
<path d="M1010 1230 c0 -5 5 -10 11 -10 5 0 7 5 4 10 -3 6 -8 10 -11 10 -2 0
-4 -4 -4 -10z"/>
<path d="M4305 1210 c-21 -40 -19 -92 5 -123 11 -14 20 -37 20 -51 0 -14 10
-44 22 -67 11 -22 17 -44 12 -47 -17 -13 -17 -108 0 -141 18 -34 49 -54 74
-48 13 4 12 5 -4 6 -37 2 -63 36 -59 78 2 35 2 35 -5 8 -7 -28 -7 -28 -9 11
-1 27 5 46 14 54 11 9 14 22 10 39 -5 23 -1 28 25 38 43 16 38 50 -12 78 -35
20 -36 22 -21 38 24 24 23 110 -2 137 -26 28 -52 25 -70 -10z"/>
<path d="M5089 1150 c-6 -84 -50 -182 -105 -237 -23 -24 -39 -43 -35 -43 4 0
20 14 36 30 28 29 32 30 86 24 52 -6 58 -4 87 22 20 18 35 45 41 71 10 48 5
57 -49 93 -19 13 -37 25 -39 27 -2 1 -7 20 -11 40 -6 35 -7 32 -11 -27z"/>
<path d="M6120 1195 c0 -2 13 -16 28 -33 52 -56 132 -230 132 -288 0 -13 5
-26 10 -29 14 -8 145 6 133 14 -5 3 -24 35 -42 70 -53 105 -104 171 -176 227
-33 26 -85 50 -85 39z"/>
<path d="M6888 1190 c-41 -12 -103 -64 -152 -129 -44 -57 -123 -198 -115 -206
2 -2 31 -7 65 -10 l60 -7 13 58 c18 82 81 213 126 262 20 23 36 42 34 41 -2 0
-16 -4 -31 -9z"/>
<path d="M1150 1140 c19 -13 30 -13 30 0 0 6 -10 10 -22 10 -19 0 -20 -2 -8
-10z"/>
<path d="M1210 1130 c8 -5 22 -9 30 -9 10 0 8 3 -5 9 -27 12 -43 12 -25 0z"/>
<path d="M4589 1106 c-51 -25 -68 -126 -26 -163 48 -43 97 -35 123 21 37 77
-30 176 -97 142z"/>
<path d="M1283 1095 c0 -7 6 -11 14 -8 7 3 13 6 13 8 0 2 -6 5 -13 8 -8 3 -14
-1 -14 -8z"/>
<path d="M4162 1085 c-19 -41 -14 -99 11 -136 19 -29 29 -34 66 -37 24 -2 56
2 72 8 l27 12 -20 24 c-12 13 -24 22 -27 20 -3 -2 -7 6 -7 17 -1 12 -3 43 -4
70 l-3 47 -52 0 c-46 0 -53 -3 -63 -25z m78 11 c0 -2 -15 -6 -34 -8 -19 -2
-32 0 -30 4 5 8 64 12 64 4z"/>
<path d="M7036 1077 c3 -10 9 -15 12 -12 3 3 0 11 -7 18 -10 9 -11 8 -5 -6z"/>
<path d="M1688 1063 c6 -2 12 -11 12 -19 0 -11 -16 -14 -64 -14 -59 0 -71 -4
-131 -42 -37 -24 -62 -44 -56 -46 16 -5 44 -69 36 -82 -3 -5 0 -17 8 -25 9 -8
17 -19 19 -25 2 -7 14 -6 36 2 26 10 40 10 74 -2 22 -8 45 -22 49 -30 11 -21
22 -53 23 -65 1 -5 12 -12 25 -13 15 -2 20 -7 13 -11 -7 -4 5 -8 24 -8 20 -1
40 -7 44 -13 12 -19 30 -2 30 28 1 26 25 141 32 147 2 1 31 22 66 47 l62 45
-72 26 c-40 14 -103 36 -140 48 -43 15 -69 30 -71 41 -3 10 -11 18 -19 17 -10
0 -10 -2 0 -6z"/>
<path d="M2080 926 c0 -2 8 -10 18 -17 15 -13 16 -12 3 4 -13 16 -21 21 -21
13z"/>
<path d="M4467 913 c-3 -5 1 -13 8 -20 10 -10 14 -9 19 3 3 9 6 18 6 20 0 7
-29 4 -33 -3z"/>
<path d="M4907 859 c-70 -41 -274 -64 -344 -39 -26 9 -26 9 -9 -5 18 -13 18
-16 2 -39 -25 -38 -20 -59 24 -104 40 -40 85 -58 126 -50 30 5 61 62 68 126
l7 59 74 22 c41 13 75 27 75 32 0 11 -1 11 -23 -2z"/>
<path d="M5911 854 c0 -11 3 -14 6 -6 3 7 2 16 -1 19 -3 4 -6 -2 -5 -13z"/>
<path d="M6473 853 c20 -2 54 -2 75 0 20 2 3 4 -38 4 -41 0 -58 -2 -37 -4z"/>
<path d="M4465 793 c-3 -15 -12 -31 -18 -35 -8 -5 -7 -8 4 -8 11 0 19 12 23
32 8 39 1 49 -9 11z"/>
<path d="M32 403 l-2 -403 1103 1 c606 1 1094 3 1085 6 -10 2 -18 9 -18 15 0
5 -12 22 -27 37 -38 36 -38 45 2 76 32 24 35 30 35 81 0 29 -3 54 -6 54 -3 0
-32 -14 -66 -30 -33 -17 -64 -30 -69 -30 -4 0 1 21 11 46 13 29 20 66 19 102
l-1 57 -10 -65 c-5 -36 -13 -66 -18 -68 -6 -2 -10 -15 -10 -28 0 -17 -4 -23
-12 -18 -7 5 -9 1 -6 -12 3 -11 -1 -25 -8 -31 -7 -7 -20 -23 -29 -35 -11 -15
-19 -19 -22 -10 -3 8 -36 12 -114 12 -102 0 -109 -1 -109 -20 0 -18 -7 -20
-80 -20 -73 0 -80 -2 -80 -20 0 -19 -7 -20 -160 -20 -153 0 -160 1 -160 20 0
18 7 20 80 20 73 0 80 2 80 20 0 18 -7 20 -60 20 -53 0 -60 2 -60 20 0 13 -7
20 -20 20 -17 0 -20 7 -20 40 0 33 -3 40 -20 40 -13 0 -20 -7 -20 -20 0 -11
-4 -20 -10 -20 -5 0 -10 18 -10 40 l0 40 -70 0 -70 0 0 -40 0 -40 40 0 40 0 0
-40 c0 -33 -3 -40 -20 -40 -13 0 -20 7 -20 20 0 16 -7 20 -30 20 -23 0 -30 4
-30 20 0 13 -7 20 -20 20 -17 0 -20 7 -20 40 l0 40 -90 0 c-83 0 -90 1 -90 20
0 13 -7 20 -20 20 -13 0 -20 7 -20 20 0 18 -7 20 -60 20 l-60 0 0 -40 0 -40
-95 0 c-68 0 -104 5 -130 17 -19 9 -35 19 -35 22 0 3 -22 4 -50 3 l-50 -4 0
61 0 61 -110 0 -110 0 0 40 c0 33 -3 40 -20 40 -13 0 -20 7 -20 20 0 11 -4 20
-10 20 -5 0 -11 46 -13 103 -1 56 -4 -79 -5 -300z m341 -53 c46 0 29 -6 -35
-14 -50 -5 -58 -4 -58 10 0 13 6 15 31 10 17 -3 45 -6 62 -6z m88 -70 c12 0
19 -7 19 -20 0 -13 -7 -20 -20 -20 -14 0 -20 -7 -21 -22 -1 -13 -5 2 -10 32
-4 30 -5 64 -1 75 5 16 7 14 10 -12 2 -25 8 -33 23 -33z m-261 1 c0 -5 -9 -7
-20 -4 -11 3 -20 7 -20 9 0 2 9 4 20 4 11 0 20 -4 20 -9z m107 -33 c-3 -7 -5
-2 -5 12 0 14 2 19 5 13 2 -7 2 -19 0 -25z m-157 -28 c0 -11 -4 -20 -10 -20
-5 0 -10 9 -10 20 0 11 5 20 10 20 6 0 10 -9 10 -20z m107 -12 c-3 -7 -5 -2
-5 12 0 14 2 19 5 13 2 -7 2 -19 0 -25z m-100 -24 c-3 -3 -12 -4 -19 -1 -8 3
-5 6 6 6 11 1 17 -2 13 -5z m290 -65 c1 -39 1 -40 -6 -14 -5 17 -12 38 -16 49
-6 14 -4 18 6 14 9 -3 15 -21 16 -49z m1633 5 c-13 -34 -13 -36 8 -25 14 7 25
1 56 -30 21 -22 37 -41 35 -42 -2 -1 -107 0 -234 3 -126 3 -184 7 -127 8 95 2
102 3 102 22 0 18 -7 20 -80 20 -73 0 -80 2 -80 20 0 18 7 20 80 20 73 0 80
-2 80 -20 0 -16 7 -20 30 -20 23 0 30 4 30 20 0 14 7 20 24 20 13 0 37 7 52
15 16 8 30 15 31 15 1 0 -2 -12 -7 -26z m-1400 -94 c0 -6 -30 -10 -70 -10 -40
0 -70 4 -70 10 0 6 30 10 70 10 40 0 70 -4 70 -10z m400 0 c0 -6 -60 -10 -160
-10 -100 0 -160 4 -160 10 0 6 60 10 160 10 100 0 160 -4 160 -10z m520 0 c0
-6 -33 -10 -80 -10 -47 0 -80 4 -80 10 0 6 33 10 80 10 47 0 80 -4 80 -10z
m-1317 -7 c-46 -2 -120 -2 -166 0 -45 1 -8 3 83 3 91 0 128 -2 83 -3z m1710
-10 c-51 -2 -135 -2 -185 0 -51 1 -10 3 92 3 102 0 143 -2 93 -3z"/>
<path d="M5886 776 c-23 -36 -20 -44 5 -12 12 15 19 29 16 32 -2 2 -12 -7 -21
-20z"/>
<path d="M7154 743 c29 -57 62 -217 74 -358 14 -160 18 -151 -54 -147 l-61 4
5 52 c4 52 4 53 -52 114 -31 33 -76 70 -100 81 -78 38 -165 21 -228 -46 -34
-36 -88 -150 -94 -199 -3 -29 2 -20 20 33 61 186 175 265 296 203 44 -23 136
-112 146 -142 3 -11 3 -40 -1 -64 -5 -39 -11 -47 -45 -64 -48 -24 -66 -50 -87
-123 -25 -90 -31 -87 182 -87 141 0 185 3 186 13 8 69 -20 156 -60 190 -26 22
-28 29 -40 162 -18 207 -65 397 -102 421 -5 3 2 -17 15 -43z"/>
<path d="M2036 741 c-33 -34 -36 -41 -36 -96 l1 -60 34 40 c19 22 48 58 64 80
l29 41 -28 16 c-28 16 -29 15 -64 -21z"/>
<path d="M5851 694 c0 -11 3 -14 6 -6 3 7 2 16 -1 19 -3 4 -6 -2 -5 -13z"/>
<path d="M1825 650 c-3 -5 -1 -10 4 -10 6 0 11 -9 11 -19 0 -27 15 -35 17 -9
2 24 -23 53 -32 38z"/>
<path d="M5822 577 c-17 -91 -32 -223 -32 -289 0 -49 -3 -60 -23 -73 -37 -24
-68 -90 -74 -156 l-6 -59 191 0 c190 0 191 0 194 23 2 12 1 31 -3 42 -4 11
-10 32 -13 46 -8 36 -41 76 -88 105 -34 22 -50 25 -105 22 l-66 -3 7 105 c3
58 13 147 22 198 18 105 14 136 -4 39z"/>
<path d="M1885 552 c6 -5 21 -13 35 -17 17 -5 22 -4 15 3 -5 5 -21 13 -35 17
-17 5 -22 4 -15 -3z"/>
<path d="M2382 500 c0 -19 2 -27 5 -17 2 9 2 25 0 35 -3 9 -5 1 -5 -18z"/>
<path d="M1963 505 c0 -8 4 -12 9 -9 5 3 6 10 3 15 -9 13 -12 11 -12 -6z"/>
<path d="M6083 495 c-71 -30 -182 -147 -170 -178 3 -7 6 -5 6 5 1 25 119 141
165 162 112 53 229 -27 280 -190 26 -84 37 -107 30 -64 -13 79 -65 183 -116
233 -46 45 -133 59 -195 32z"/>
<path d="M2036 455 c7 -17 44 -41 44 -28 0 4 -12 16 -25 26 -20 15 -24 15 -19
2z"/>
<path d="M480 430 c0 -5 9 -10 20 -10 11 0 20 5 20 10 0 6 -9 10 -20 10 -11 0
-20 -4 -20 -10z"/>
<path d="M6143 393 c-55 -78 -58 -196 -8 -259 l23 -29 30 28 c55 53 69 171 29
242 -28 49 -49 54 -74 18z"/>
<path d="M6838 403 c-47 -54 -55 -160 -19 -232 22 -41 54 -67 71 -56 26 16 44
73 44 140 0 71 -10 102 -47 143 -25 27 -29 27 -49 5z"/>
<path d="M2341 346 c-9 -11 -9 -16 1 -22 7 -4 10 -4 6 1 -4 4 -3 14 3 22 6 7
9 13 6 13 -2 0 -10 -6 -16 -14z"/>
<path d="M5921 284 c0 -11 3 -14 6 -6 3 7 2 16 -1 19 -3 4 -6 -2 -5 -13z"/>
<path d="M1480 200 l0 -40 80 0 c73 0 80 2 80 20 0 13 -7 20 -20 20 -13 0 -20
7 -20 20 0 18 -7 20 -60 20 l-60 0 0 -40z"/>
<path d="M6490 145 c0 -21 24 -29 49 -15 28 14 18 30 -20 30 -19 0 -29 -5 -29
-15z"/>
<path d="M2393 123 c9 -2 25 -2 35 0 9 3 1 5 -18 5 -19 0 -27 -2 -17 -5z"/>
<path d="M6728 83 c7 -3 16 -2 19 1 4 3 -2 6 -13 5 -11 0 -14 -3 -6 -6z"/>
<path d="M2316 65 c-11 -8 -16 -15 -10 -15 5 0 18 7 28 15 11 8 16 15 10 15
-5 0 -18 -7 -28 -15z"/>
<path d="M6404 69 c-2 -4 -3 -21 -2 -37 l2 -29 107 -1 107 -1 11 31 c15 42 -7
60 -27 23 -7 -14 -17 -25 -23 -25 -15 0 -36 23 -32 35 2 6 -8 10 -22 10 -14 0
-25 -5 -25 -12 0 -21 -39 -36 -56 -22 -8 7 -13 17 -10 24 5 13 -22 16 -30 4z"/>
<path d="M6108 43 c7 -3 16 -2 19 1 4 3 -2 6 -13 5 -11 0 -14 -3 -6 -6z"/>
<path d="M6637 26 c-6 -15 1 -26 15 -26 4 0 8 9 8 20 0 23 -15 27 -23 6z"/>
<path d="M6858 33 c7 -3 16 -2 19 1 4 3 -2 6 -13 5 -11 0 -14 -3 -6 -6z"/>
</g>
</svg>
